<?xml version="1.0" encoding="UTF-8"?>
<svg version="1.1" xmlns="http://www.w3.org/2000/svg" width="1254" height="1254">
<path d="M0 0 C413.82 0 827.64 0 1254 0 C1254 413.82 1254 827.64 1254 1254 C840.18 1254 426.36 1254 0 1254 C0 840.18 0 426.36 0 0 Z " fill="#00040D" transform="translate(0,0)"/>
<path d="M0 0 C1.42650676 -0.00473591 2.8530122 -0.00988748 4.2795161 -0.01541764 C8.19090242 -0.02927468 12.10227947 -0.03689339 16.01368403 -0.04339063 C19.37104733 -0.04977792 22.72839555 -0.05984576 26.0857494 -0.06995129 C37.14619557 -0.10322141 48.20665091 -0.12478887 59.26713067 -0.14315113 C62.1500015 -0.14795047 65.03287196 -0.15293328 67.9157424 -0.15795636 C85.84237586 -0.18893629 103.76901264 -0.21560393 121.69566536 -0.23237514 C125.84519583 -0.23632424 129.99472624 -0.24032729 134.14425659 -0.24440002 C135.1755235 -0.24540839 136.20679041 -0.24641675 137.26930784 -0.24745566 C153.9513211 -0.26443931 170.63318542 -0.30552485 187.31512608 -0.35642301 C204.46790683 -0.40832421 221.62061123 -0.43733396 238.77346981 -0.44457203 C248.39360341 -0.44921894 258.01349326 -0.46380822 267.63354874 -0.50431633 C275.83185734 -0.53879701 284.02987815 -0.5524833 292.22825505 -0.53989219 C296.40318818 -0.53410691 300.57751409 -0.53763292 304.75235367 -0.56806183 C329.00477949 -0.73525536 349.75739028 1.81335143 371.08810425 14.16062927 C372.00196899 14.68463318 372.00196899 14.68463318 372.93429565 15.21922302 C382.01846066 20.51407661 389.58182158 26.83440735 397.08810425 34.16062927 C397.73134644 34.74199646 398.37458862 35.32336365 399.037323 35.92234802 C415.36268256 51.02996514 425.4898053 73.54529518 429.631073 95.07078552 C430.06967702 97.30425437 430.06967702 97.30425437 431.10163689 99.91766453 C432.78685091 105.84095924 432.35622111 112.03402029 432.32861328 118.13790894 C432.329486 119.57113202 432.33123819 121.0043548 432.33379161 122.43757588 C432.3382562 126.36674604 432.3302737 130.29580683 432.32023549 134.22496307 C432.31159048 138.4655067 432.3145219 142.70604427 432.31604004 146.94659424 C432.31708822 154.29058732 432.31081856 161.63454484 432.29956436 168.97852898 C432.28330334 179.59666411 432.27810074 190.21478207 432.27558838 200.83292831 C432.27121222 218.06057991 432.25790527 235.28821257 432.23898315 252.51585388 C432.2206223 269.2499024 432.2064668 285.98394576 432.19796753 302.71800232 C432.19717936 304.26549443 432.19717936 304.26549443 432.19637527 305.844249 C432.19376517 311.01984318 432.19123776 316.1954374 432.18875146 321.37103164 C432.16802144 364.30091064 432.13279806 407.23076898 432.08810425 450.16062927 C433.24366821 450.59955505 433.24366821 450.59955505 434.4225769 451.04734802 C447.30525072 456.42791155 454.29539751 468.85539873 459.8263855 480.88719177 C462.6969785 488.33473646 463.40587966 494.81034969 463.33810425 502.72312927 C463.34583862 503.62998474 463.353573 504.53684021 463.36154175 505.47117615 C463.31923643 520.05593356 456.86014492 533.5573186 447.08810425 544.16062927 C446.43712769 544.87992615 445.78615112 545.59922302 445.115448 546.34031677 C434.37924073 557.65282145 421.03402934 564.26145769 405.41403198 564.77415466 C391.25622392 564.82806514 380.58766383 562.31162846 368.646698 554.45359802 C366.25386845 552.97744252 366.25386845 552.97744252 363.9982605 553.27391052 C362.00182512 554.08958357 362.00182512 554.08958357 360.36229968 555.69210482 C357.35916581 557.63132933 355.35384418 557.5387749 351.79082108 557.54373932 C350.48790092 557.55279596 349.18498076 557.5618526 347.84257817 557.57118368 C346.39310816 557.566079 344.94363914 557.56068688 343.49417114 557.55503845 C341.95689407 557.55992572 340.41962067 557.56611476 338.88235354 557.57349634 C334.65067899 557.58994332 330.41919015 557.58756814 326.18749475 557.58212137 C321.62534947 557.5794566 317.0632543 557.59397362 312.50112915 557.60621643 C303.55536794 557.62730529 294.60967149 557.63180895 285.66388837 557.63002855 C278.38347932 557.62872114 271.10309048 557.63252403 263.82268524 557.63995361 C261.72560589 557.64205288 259.62852653 557.64415048 257.53144717 557.64624643 C256.48757259 557.64728996 255.443698 557.64833349 254.36819085 557.64940864 C234.60498928 557.66832939 214.84182478 557.66725695 195.0786179 557.66043931 C177.04048523 557.65487876 159.00249526 557.6756223 140.96439591 557.70879978 C122.42289768 557.74263649 103.88146757 557.75769163 85.33993793 557.75308275 C74.9389165 557.75084601 64.53802649 557.75596217 54.13703156 557.78097534 C45.26937054 557.80211917 36.40191275 557.80545342 27.53424302 557.78667575 C23.0188118 557.77759266 18.50375808 557.77614214 13.98835754 557.7970314 C-11.21702257 557.90583107 -35.04009065 556.90740487 -57.91189575 545.16062927 C-59.23074512 544.51186428 -60.54975802 543.86343163 -61.868927 543.21531677 C-69.59474511 539.33711664 -76.41892152 534.90190011 -82.91189575 529.16062927 C-83.742052 528.45035583 -84.57220825 527.7400824 -85.42752075 527.00828552 C-104.08452266 510.72633141 -117.36135841 489.91285209 -124.32450867 466.14926147 C-124.85842786 464.34164786 -125.41794416 462.54164442 -125.98025513 460.74266052 C-129.90995909 446.53584504 -129.57989024 432.24824577 -129.66189575 417.59812927 C-129.74439575 408.54375427 -129.82689575 399.48937927 -129.91189575 390.16062927 C-153.34189575 389.83062927 -176.77189575 389.50062927 -200.91189575 389.16062927 C-201.57189575 390.81062927 -202.23189575 392.46062927 -202.91189575 394.16062927 C-209.57000842 402.49955708 -216.94242319 406.83747175 -226.91189575 410.16062927 C-240.18373667 411.38031297 -251.40047871 410.44342309 -262.03689575 401.84422302 C-269.87918064 394.80250472 -275.60595416 387.16069941 -276.35720825 376.35984802 C-276.68270993 367.5057042 -276.76479141 358.87918142 -271.91189575 351.16062927 C-271.18293091 350.00047302 -271.18293091 350.00047302 -270.4392395 348.81687927 C-264.44027974 340.30771649 -255.15899576 333.46487134 -244.91189575 331.16062927 C-232.93920928 329.90657318 -222.08139735 330.89906088 -212.0642395 338.25047302 C-207.26497834 342.38532984 -203.17393831 346.72389167 -199.91189575 352.16062927 C-199.91189575 353.15062927 -199.91189575 354.14062927 -199.91189575 355.16062927 C-199.35805804 355.15786389 -198.80422033 355.15509851 -198.23359966 355.15224934 C-184.76342557 355.08602376 -171.29327996 355.03655687 -157.82297802 355.00519276 C-151.30885452 354.98951677 -144.79484825 354.96824306 -138.28079224 354.93431091 C-131.99791113 354.90178666 -125.715143 354.88379083 -119.43218422 354.87599754 C-117.03151991 354.87044157 -114.63086198 354.85959257 -112.23024559 354.8434391 C-108.87553777 354.82175732 -105.52130069 354.81865851 -102.16653442 354.8200531 C-100.66789352 354.80387436 -100.66789352 354.80387436 -99.13897705 354.78736877 C-98.22612442 354.79149277 -97.31327179 354.79561676 -96.37275696 354.79986572 C-95.18226132 354.79571765 -95.18226132 354.79571765 -93.96771526 354.79148579 C-91.35243261 355.26108662 -90.47465844 356.03666798 -88.91189575 358.16062927 C-88.61768229 360.82732425 -88.50516169 363.26266696 -88.52713013 365.92991638 C-88.52175735 366.72062531 -88.51638458 367.51133423 -88.510849 368.32600403 C-88.50106127 370.04474379 -88.49812986 371.76353302 -88.50120544 373.4822979 C-88.50568563 376.21227337 -88.49167303 378.94160116 -88.47280884 381.67150879 C-88.43598566 387.48037149 -88.42233317 393.2891671 -88.41189575 399.09812927 C-88.3997792 405.80150776 -88.37793024 412.50457272 -88.33189392 419.20781136 C-88.31843874 421.87978961 -88.32247601 424.55135999 -88.32730103 427.22335815 C-88.29779987 436.28722444 -87.75938333 444.45821548 -84.91189575 453.16062927 C-84.54825928 454.31918427 -84.54825928 454.31918427 -84.17727661 455.50114441 C-81.29517739 464.47208651 -77.54658904 472.56165048 -71.91189575 480.16062927 C-71.18228638 481.14676208 -70.452677 482.1328949 -69.70095825 483.14891052 C-55.42119717 501.33365482 -34.81085645 512.28104473 -11.91189575 515.16062927 C-9.77806694 515.2492277 -7.64205523 515.29401751 -5.50639439 515.29929447 C-4.25585162 515.30476892 -3.00530885 515.31024336 -1.71687084 515.3158837 C-0.34222772 515.31695969 1.03241547 515.31794442 2.40705872 515.31884766 C3.87740559 515.32341721 5.34775118 515.32841781 6.81809527 515.33381122 C10.84983571 515.34735693 14.88156775 515.35480033 18.91332495 515.36123788 C23.26430914 515.36925753 27.61527592 515.38294991 31.96624756 515.39595032 C39.50174857 515.41769088 47.03725136 515.43584421 54.57276726 515.45155525 C65.46783407 515.47427593 76.36288159 515.50241571 87.25793201 515.53187453 C104.93479405 515.57952349 122.61166399 515.62279498 140.2885437 515.66331482 C157.45912287 515.70268346 174.62969502 515.74411297 191.80026245 515.78831482 C193.388079 515.79240123 193.388079 515.79240123 195.00797265 515.79657019 C200.31842359 515.81024989 205.62887443 515.82397012 210.93932521 515.8377105 C254.9889036 515.95163293 299.03849716 516.05845164 343.08810425 516.16062927 C342.75810425 515.17062927 342.42810425 514.18062927 342.08810425 513.16062927 C340.19568338 492.33920879 344.95589984 476.46590857 357.7326355 460.04734802 C365.66335786 451.31351454 377.65206651 444.69213608 389.08810425 442.16062927 C390.40810425 442.16062927 391.72810425 442.16062927 393.08810425 442.16062927 C393.09790778 400.60537541 393.07608243 359.05024358 393.01231395 317.49503427 C393.00479864 312.58009946 392.99754301 307.66516431 392.990448 302.75022888 C392.98903125 301.77182514 392.98761449 300.7934214 392.98615481 299.78536906 C392.9638852 283.97918093 392.96261499 268.17305819 392.96921562 252.36685876 C392.97552562 236.12728986 392.95901303 219.88785762 392.92166817 203.64832991 C392.89936511 193.64161083 392.894497 183.63520409 392.91250761 173.62847503 C392.92317541 166.75031341 392.9115144 159.87240631 392.88294272 152.99429689 C392.86713979 149.03614532 392.86055818 145.07860041 392.88071251 141.12045479 C393.01549039 112.30624523 388.81527967 86.71140107 368.08810425 65.16062927 C353.04244293 50.68272876 333.48576917 42.33999804 312.64955139 42.52571106 C311.26349076 42.51993157 309.87743784 42.51197832 308.49140054 42.50207484 C304.72889879 42.48142746 300.96704063 42.4914141 297.20453823 42.50700593 C293.12871312 42.5184078 289.05299195 42.50081313 284.97718811 42.48710632 C277.01012543 42.46496104 269.04329929 42.46963656 261.07622763 42.48416953 C254.59502704 42.49549863 248.11389237 42.49697685 241.63268471 42.49155045 C240.70739269 42.49078428 239.78210068 42.49001812 238.82876951 42.48922873 C236.94854366 42.48762997 235.06831784 42.4860089 233.18809203 42.48436578 C215.58721649 42.47013316 197.98647148 42.48646062 180.38561735 42.51336761 C165.31592194 42.53569298 150.24641921 42.53183247 135.17672729 42.5087738 C117.64002434 42.48195249 100.10343567 42.4715179 82.56671506 42.48683512 C80.69280042 42.48842771 78.81888576 42.48999957 76.94497108 42.49155045 C76.02318767 42.49232182 75.10140425 42.4930932 74.15168801 42.49388795 C67.68729601 42.49818683 61.22297709 42.49095746 54.75859642 42.47915268 C46.86743256 42.46505808 38.97651703 42.46907219 31.08538123 42.4955564 C27.06680449 42.50860349 23.04864016 42.51400514 19.03006744 42.49731064 C-8.22236398 42.39363986 -29.8997004 45.64215163 -51.91189575 63.16062927 C-52.60670044 63.69043396 -53.30150513 64.22023865 -54.0173645 64.76609802 C-70.24607892 77.88511866 -81.90063141 100.73053414 -84.91189575 121.16062927 C-85.1590146 125.88379514 -85.19059218 130.59520493 -85.18629074 135.32404518 C-85.18531593 137.6909811 -85.19837512 140.05747477 -85.215271 142.42434692 C-85.2612846 149.14671069 -85.28617717 155.86902123 -85.29275513 162.59153748 C-85.29776571 166.71939071 -85.32197575 170.84676983 -85.35808182 174.97446251 C-85.36787498 176.5425094 -85.37021436 178.11062146 -85.36491013 179.67868996 C-85.35784882 181.86630389 -85.37509419 184.05249559 -85.3977356 186.23997498 C-85.40058563 187.48301895 -85.40343567 188.72606293 -85.40637207 190.0067749 C-85.91189575 193.16062927 -85.91189575 193.16062927 -87.29148865 195.56797791 C-91.47000362 198.10762817 -95.55924264 197.65529906 -100.35256958 197.56370544 C-101.4148024 197.55958649 -102.47703522 197.55546753 -103.57145691 197.55122375 C-105.87849619 197.54046118 -108.18550728 197.52091365 -110.49241066 197.49365807 C-114.1452469 197.45330728 -117.79710303 197.44184404 -121.45014954 197.43902588 C-131.83596669 197.42724956 -142.22113445 197.37470007 -152.60647583 197.27415466 C-158.9591013 197.21468957 -165.31061352 197.19891003 -171.66348839 197.21030617 C-174.0832477 197.2058504 -176.50303706 197.18457899 -178.92249489 197.14612389 C-182.31062549 197.0932719 -185.69462241 197.09584382 -189.08303833 197.11058044 C-190.08016846 197.08128952 -191.07729858 197.0519986 -192.10464478 197.02182007 C-196.29658521 197.08950051 -198.86877547 197.19068591 -202.01712608 200.1181736 C-203.89217162 202.47012955 -203.89217162 202.47012955 -205.43175793 204.90530872 C-209.22501814 210.68518784 -214.51142436 213.75510978 -220.7986145 216.30125427 C-222.90555698 217.08732359 -222.90555698 217.08732359 -224.64627075 218.24656677 C-231.93205821 221.18600516 -243.55506674 220.04605733 -250.91189575 217.66062927 C-261.75383194 212.90481064 -270.00505621 204.34439886 -274.5642395 193.44969177 C-277.84325884 184.25336168 -277.73053318 172.1304645 -273.80960083 163.16917419 C-267.49810735 150.80537558 -257.92879573 143.86907395 -244.92752075 139.49266052 C-232.47645683 137.44161317 -221.8613488 139.77533337 -211.53689575 147.03562927 C-205.61371694 151.84821206 -202.35360734 155.83549449 -199.91189575 163.16062927 C-175.82189575 162.83062927 -151.73189575 162.50062927 -126.91189575 162.16062927 C-126.87064575 155.27187927 -126.82939575 148.38312927 -126.78689575 141.28562927 C-126.19663349 105.92066862 -117.9948538 72.19080247 -93.91189575 45.16062927 C-93.215802 44.33305115 -92.51970825 43.50547302 -91.80252075 42.65281677 C-82.14952656 31.41447681 -70.66607652 22.59816342 -57.91189575 15.16062927 C-56.33408325 14.23637146 -56.33408325 14.23637146 -54.72439575 13.29344177 C-37.58573205 4.02373184 -19.3055324 0.01726487 0 0 Z " fill="#01C9F9" transform="translate(521.9118957519531,313.83937072753906)"/>
<path d="M0 0 C0.9839122 -0.01292336 0.9839122 -0.01292336 1.98770142 -0.02610779 C4.14455213 -0.04871325 6.30009789 -0.04204066 8.45703125 -0.03295898 C9.96248763 -0.03819673 11.46794073 -0.04447377 12.97338867 -0.05174255 C16.1240181 -0.06213639 19.27419559 -0.05759992 22.42480469 -0.04296875 C26.45694347 -0.02577391 30.48765815 -0.04928797 34.51963806 -0.08445835 C37.62700798 -0.10644608 40.73403775 -0.10498788 43.84146118 -0.09669304 C45.32778486 -0.09587441 46.81413374 -0.10272112 48.30038452 -0.11746407 C50.38082797 -0.13493989 52.45872046 -0.12034955 54.5390625 -0.09765625 C56.31180542 -0.09621361 56.31180542 -0.09621361 58.12036133 -0.09474182 C61.26953125 0.53344727 61.26953125 0.53344727 64.15470886 2.23419189 C67.54465649 7.5227225 66.92276878 12.80378323 66.8371582 18.95263672 C66.8357471 20.33266651 66.83654094 21.71270005 66.83937073 23.09272766 C66.8408039 26.83231185 66.81143142 30.57109231 66.77650094 34.31048989 C66.74522025 38.22088296 66.74230537 42.13129495 66.7363739 46.04179382 C66.7208404 53.44374197 66.67981892 60.84532037 66.62962645 68.24710578 C66.57371738 76.67506227 66.5462426 85.10303653 66.52114928 93.53113234 C66.46890239 110.8654511 66.38097003 128.19941007 66.26953125 145.53344727 C67.22239014 144.74808594 68.17524902 143.96272461 69.15698242 143.15356445 C69.69296555 142.71179871 70.22894867 142.27003296 70.78117371 141.81488037 C72.57234268 140.27273532 74.07672826 138.60381367 75.58203125 136.78344727 C78.18890453 133.7219537 80.90426238 130.85493444 83.76953125 128.03344727 C86.53513533 125.30515319 89.18240156 122.54827893 91.70703125 119.59594727 C94.42572373 116.42308806 97.297048 113.47006345 100.26953125 110.53344727 C103.15942953 107.67821044 105.9540487 104.81844531 108.58203125 101.72094727 C112.31762647 97.34648541 116.41499014 93.36144712 120.50219727 89.3203125 C124.03344766 85.81355987 127.37618933 82.219662 130.59765625 78.42407227 C133.28095969 75.3896824 136.19949746 72.5957779 139.08203125 69.75219727 C141.06673467 67.73914094 142.93050041 65.67898324 144.76953125 63.53344727 C147.31644733 60.56204517 149.98331984 57.78200717 152.76953125 55.03344727 C155.53513533 52.30515319 158.18240156 49.54827893 160.70703125 46.59594727 C163.42572373 43.42308806 166.297048 40.47006345 169.26953125 37.53344727 C172.20071316 34.63752769 175.03356299 31.73102155 177.70703125 28.59594727 C181.00961731 24.7312189 184.59349294 21.17996496 188.20922852 17.61328125 C191.5179344 14.33203825 194.63749781 10.9495289 197.63671875 7.38500977 C198.17554688 6.77399414 198.714375 6.16297852 199.26953125 5.53344727 C199.99565613 4.6822934 200.72178101 3.83113953 201.46990967 2.95419312 C204.85253099 0.02934549 206.2902548 -0.08178189 210.69628906 -0.05004883 C211.97401184 -0.05289886 213.25173462 -0.0557489 214.56817627 -0.0586853 C215.95301406 -0.03647029 217.33784078 -0.0135555 218.72265625 0.01000977 C220.14800198 0.01680259 221.57335897 0.02152274 222.99871826 0.02426147 C225.97799531 0.03491748 228.9565177 0.06156241 231.93554688 0.10131836 C235.76133303 0.15236968 239.58668728 0.17736155 243.41276932 0.19225502 C247.05779187 0.20701059 250.70271225 0.23224645 254.34765625 0.26000977 C255.39529018 0.26737593 255.39529018 0.26737593 256.46408844 0.2748909 C258.4295646 0.29109981 260.39496698 0.31562204 262.36035156 0.34057617 C264.0398288 0.35986679 264.0398288 0.35986679 265.75323486 0.37954712 C268.26953125 0.53344727 268.26953125 0.53344727 269.26953125 1.53344727 C269.73828125 3.64282227 269.73828125 3.64282227 269.26953125 6.53344727 C267.38009645 9.21388274 265.08074536 11.4656745 262.76953125 13.78344727 C261.39289786 15.2050015 260.01660748 16.62688798 258.640625 18.04907227 C257.92245605 18.78319336 257.20428711 19.51731445 256.46435547 20.27368164 C252.86727501 23.97719407 249.35545043 27.76003311 245.83203125 31.53344727 C241.33286406 36.34455064 236.77108181 41.07041674 232.07714844 45.69238281 C230.28697324 47.51568254 228.61293502 49.40062376 226.95703125 51.34594727 C224.04702617 54.73540398 220.94792034 57.89795141 217.76953125 61.03344727 C214.7163542 64.0457518 211.72880672 67.06893677 208.95703125 70.34594727 C205.03445929 74.95235744 200.69592552 79.13238732 196.39892578 83.38452148 C192.69198178 87.06760744 189.15263721 90.82181091 185.7734375 94.81079102 C183.64235639 97.25184756 181.32631035 99.4865885 179.015625 101.75610352 C177.20475482 103.599383 175.51631771 105.51167526 173.83203125 107.47094727 C170.79273474 110.9997949 167.55936278 114.26349754 164.2421875 117.52954102 C161.70246575 120.10949598 159.35788808 122.82934915 157.015625 125.58813477 C154.67754108 128.19297994 152.0982347 130.50118975 149.45703125 132.79516602 C148.03180476 134.51409019 148.03180476 134.51409019 148.34765625 136.93969727 C149.44571187 140.02914189 150.87641655 141.86259356 153.01953125 144.34594727 C154.23576172 145.78067383 154.23576172 145.78067383 155.4765625 147.24438477 C155.92338379 147.76742187 156.37020508 148.29045898 156.83056641 148.8293457 C159.5082656 152.00042483 162.09960858 155.24207228 164.70703125 158.47094727 C168.56585065 163.23224149 172.45322328 167.96522044 176.39453125 172.65844727 C180.32603503 177.35476127 184.11994356 182.14091795 187.88330078 186.97143555 C191.60061548 191.72457462 195.42018155 196.38685168 199.26953125 201.03344727 C204.05864846 206.81444733 208.75475191 212.65378132 213.3671875 218.57641602 C216.26666147 222.28842694 219.23914944 225.92653056 222.26953125 229.53344727 C226.26797632 234.29380077 230.13042103 239.14035724 233.953125 244.04125977 C237.50401924 248.58402391 241.1232904 253.06696337 244.76953125 257.53344727 C249.2905798 263.07445606 253.75314325 268.65522044 258.15600586 274.29052734 C262.18759419 279.44655721 266.2781047 284.5543029 270.38696289 289.64892578 C276.55147776 297.31743686 276.55147776 297.31743686 276.26953125 302.53344727 C267.7593536 302.92981663 259.25310785 303.23054872 250.73594379 303.41425419 C246.77919467 303.50250011 242.8288133 303.62177233 238.87573242 303.81591797 C213.38238194 305.0358939 213.38238194 305.0358939 206.5826416 300.89862061 C202.40956388 297.05306283 199.7112083 292.6466584 197.28909302 287.55485535 C195.86277723 284.7270068 193.95054606 282.42744052 191.89453125 280.03344727 C187.52667926 274.61913074 183.2580563 269.13275837 179.03125 263.60766602 C174.01059985 257.04619564 168.90883566 250.55961185 163.73168945 244.12084961 C160.52783883 240.12847723 157.37611161 236.1018715 154.26953125 232.03344727 C150.18712423 226.68910079 146.00941202 221.42713675 141.79638672 216.18530273 C138.46263965 212.03486738 135.16865597 207.85599676 131.89453125 203.65844727 C127.02274132 197.42093672 122.00533532 191.30827345 116.95166016 185.2175293 C116.38624512 184.5354541 115.82083008 183.85337891 115.23828125 183.15063477 C114.73748047 182.54848145 114.23667969 181.94632813 113.72070312 181.32592773 C109.26953125 175.8278618 109.26953125 175.8278618 109.26953125 173.53344727 C99.12737484 182.15266007 89.37142416 191.2998619 80.04296875 200.79125977 C77.47627753 203.31272295 74.76657053 205.65463685 72.03125 207.99047852 C71.44988281 208.4996582 70.86851562 209.00883789 70.26953125 209.53344727 C69.48344986 210.07420395 69.48344986 210.07420395 68.68148804 210.62588501 C66.43661817 213.65871793 66.87308213 216.96968138 66.91650391 220.59741211 C66.91434372 221.41887222 66.91218353 222.24033234 66.90995789 223.08668518 C66.90686926 224.87094543 66.91048167 226.65522689 66.91997147 228.43946457 C66.93368963 231.26412791 66.92728436 234.08808707 66.91513062 236.91275024 C66.88413927 244.94358903 66.88904414 252.97426549 66.90917969 261.00512695 C66.92009625 265.91708722 66.90690784 270.82851915 66.87928391 275.74040604 C66.87384177 277.61188045 66.87791129 279.48340766 66.89168167 281.35483932 C66.91072764 283.97404305 66.89933286 286.59151943 66.88134766 289.21069336 C66.89468643 289.98281662 66.90802521 290.75493988 66.92176819 291.55046082 C66.86349846 295.36917749 66.38571515 297.36899215 64.16441345 300.51318359 C60.61030968 302.993501 58.6505387 303.16636787 54.33959961 303.18041992 C53.32401726 303.19356232 53.32401726 303.19356232 52.28791809 303.20697021 C50.06107555 303.22888827 47.8362359 303.21444334 45.609375 303.19750977 C44.05668254 303.20087977 42.50399265 303.20573393 40.9513092 303.21200562 C37.70222783 303.2193662 34.45383512 303.20869732 31.20483398 303.18530273 C27.04253161 303.15679033 22.88183946 303.17323772 18.71959591 303.20316505 C15.51530337 303.22124054 12.31139217 303.21547956 9.10708809 303.20252609 C7.57250337 303.19919394 6.03788387 303.20327255 4.50333977 303.21492386 C2.35798406 303.22764104 0.21523037 303.20825196 -1.92993164 303.18041992 C-3.14951065 303.17644196 -4.36908966 303.17246399 -5.62562561 303.16836548 C-8.73046875 302.53344727 -8.73046875 302.53344727 -11.12216187 300.18991089 C-14.25927345 295.00829855 -13.34191837 288.92467759 -13.29296875 283.03344727 C-13.31681641 281.71473633 -13.34066406 280.39602539 -13.36523438 279.03735352 C-13.36330078 277.76762695 -13.36136719 276.49790039 -13.359375 275.18969727 C-13.3601001 274.03276367 -13.3608252 272.87583008 -13.36157227 271.68383789 C-12.53351991 267.55030305 -11.04576221 266.07232472 -7.73046875 263.53344727 C-5.25097656 262.88989258 -5.25097656 262.88989258 -2.68359375 262.86157227 C-1.75675781 262.83708008 -0.82992187 262.81258789 0.125 262.78735352 C1.08019531 262.78606445 2.03539062 262.78477539 3.01953125 262.78344727 C4.9310524 262.75044624 6.84252083 262.71417126 8.75390625 262.67407227 C9.59663086 262.66923828 10.43935547 262.6644043 11.30761719 262.65942383 C13.27305915 262.75003363 13.27305915 262.75003363 14.26953125 261.53344727 C14.36745069 258.70135754 14.3994572 255.89365446 14.38978577 253.06114197 C14.39064019 252.16190602 14.39149462 251.26267008 14.39237493 250.33618456 C14.3940325 247.29897307 14.38850387 244.26181585 14.38305664 241.22460938 C14.3827748 239.05700176 14.38293244 236.88939406 14.38349915 234.7217865 C14.38378725 228.81706706 14.37788842 222.91236774 14.37092519 217.007653 C14.36469381 210.84434151 14.36408802 204.68102961 14.36289978 198.51771545 C14.35978582 186.83755827 14.35157157 175.15741039 14.34155029 163.47725731 C14.33039114 150.18365501 14.32487921 136.89005295 14.31985486 123.59644687 C14.30938901 96.2421085 14.29178833 68.8877784 14.26953125 41.53344727 C13.65956299 41.52410156 13.04959473 41.51475586 12.42114258 41.50512695 C9.64063638 41.45123401 6.86177863 41.36762658 4.08203125 41.28344727 C3.12232422 41.26926758 2.16261719 41.25508789 1.17382812 41.24047852 C-3.21317886 41.08867897 -6.02547736 40.94692181 -9.86581421 38.69458008 C-12.54689555 35.5872094 -12.37683297 33.34494928 -12.39453125 29.28344727 C-12.39931488 28.58832031 -12.40409851 27.89319336 -12.4090271 27.17700195 C-12.41242102 25.71115855 -12.40325356 24.24523893 -12.38232422 22.77954102 C-12.35554158 20.53953841 -12.38207874 18.30454461 -12.4140625 16.06469727 C-12.4107583 14.63760291 -12.40435183 13.21051166 -12.39453125 11.78344727 C-12.3888916 10.48922852 -12.38325195 9.19500977 -12.37744141 7.86157227 C-11.73046875 4.53344727 -11.73046875 4.53344727 -9.61068726 2.35877991 C-6.12429027 0.14928288 -4.10561001 0.02153353 0 0 Z " fill="#01CBFB" transform="translate(537.73046875,438.466552734375)"/>
<path d="M0 0 C6.4289804 4.79774657 6.4289804 4.79774657 8.33957672 8.37452221 C10.93583267 13.24376809 10.93583267 13.24376809 15.48028564 16.02826881 C18.33984859 16.32385769 21.08122999 16.33677182 23.95507812 16.25317383 C25.02896286 16.25781647 26.1028476 16.26245911 27.20927429 16.26724243 C30.7529127 16.27285513 34.29278109 16.21597072 37.8359375 16.16015625 C40.30163163 16.15565132 42.76733789 16.15569073 45.23303223 16.16007996 C51.72171637 16.16204396 58.20897589 16.11375492 64.69732666 16.05151367 C75.08201578 15.9579278 85.46679043 15.92981876 95.85185242 15.92188072 C99.47837411 15.91030015 103.10382877 15.87089597 106.73010254 15.82832336 C108.95483023 15.81805003 111.17956183 15.80858195 113.40429688 15.80004883 C114.41123093 15.78087906 115.41816498 15.76170929 116.45561218 15.74195862 C123.66053658 15.7489538 127.0374337 17.0608712 132.1796875 22.203125 C132.68684175 25.76411565 132.59645872 29.36013632 132.6171875 32.953125 C132.65005859 33.943125 132.68292969 34.933125 132.71679688 35.953125 C132.77708841 44.15277421 132.77708841 44.15277421 129.77734375 47.84375 C126.45875199 50.85792959 125.0909988 51.32899288 120.74778748 51.29405212 C119.81565933 51.28938934 118.88353119 51.28472656 117.92315674 51.27992249 C116.89720398 51.2699675 115.87125122 51.26001251 114.81420898 51.24975586 C112.57873208 51.23697759 110.34325323 51.22453741 108.10777283 51.21238708 C106.32260411 51.20051267 106.32260411 51.20051267 104.50137138 51.18839836 C96.89192094 51.14638935 89.28231843 51.15812658 81.67277431 51.15828609 C74.98155956 51.15614441 68.29132753 51.13461537 61.6003418 51.07641602 C55.13312325 51.02120561 48.66747164 51.01478774 42.20009041 51.04110909 C39.73736132 51.04234294 37.27455603 51.0258749 34.81207085 50.99119377 C21.63345776 50.0852122 21.63345776 50.0852122 9.72219849 54.40603638 C7.45801446 56.90540359 5.83236405 59.27897216 4.1796875 62.203125 C-0.01325977 66.72246453 -5.21952317 68.91800295 -10.8203125 71.203125 C-11.8103125 71.698125 -11.8103125 71.698125 -12.8203125 72.203125 C-27.0358118 73.93764216 -37.5583504 72.00937865 -49.20703125 63.44921875 C-57.11451393 56.47557212 -62.1852139 45.4704676 -63.09375 35.07421875 C-63.42925254 23.73165201 -60.97889957 15.52121316 -53.5703125 6.828125 C-38.65219923 -8.55926666 -18.56888436 -11.83059114 0 0 Z " fill="#01CDF9" transform="translate(371.8203125,556.796875)"/>
<path d="M0 0 C7.08702061 4.3148867 11.92405833 9.28526838 14.71875 17.1875 C16.99628266 26.73144637 15.35969121 33.6313823 10.6875 41.9375 C5.90096828 48.14705467 0.26658683 53.43876166 -7.625 54.9375 C-17.54858017 56.07125948 -24.80057264 54.5522386 -32.65625 48.328125 C-37.94593987 43.44188606 -41.91400411 37.22520786 -42.625 29.9375 C-42.68816406 29.29296875 -42.75132812 28.6484375 -42.81640625 27.984375 C-43.26038214 19.79230379 -40.56793007 12.97241581 -35.4375 6.625 C-26.09832237 -3.02744145 -12.47885846 -5.75212312 0 0 Z " fill="#00060E" transform="translate(937.625,790.0625)"/>
<path d="M0 0 C3.4375 1.6875 3.4375 1.6875 6 4 C6.78375 4.70125 7.5675 5.4025 8.375 6.125 C10.79559799 10.40759645 10.86162197 14.19739405 10 19 C8.24471438 23.01101438 5.83508012 25.3979655 2.3125 27.9375 C-2.64764803 29.52849088 -8.01272662 30.45933606 -12.87109375 28.0859375 C-16.91614312 24.95884198 -19.49550935 21.10791151 -20.31640625 16.05078125 C-20.69284894 9.67554221 -18.0379011 6.34667399 -13.9375 1.625 C-9.39381671 -0.88852692 -5.07290328 -0.73855504 0 0 Z " fill="#000A13" transform="translate(291,479)"/>
<path d="M0 0 C3.77205491 2.48795111 6.63847921 5.01425632 8.9375 8.9375 C9.82799735 14.03762116 9.31497801 16.78987901 6.75 21.25 C4.48210727 24.45654833 2.7287761 26.58949072 -1.0625 27.9375 C-5.60340817 28.46289433 -9.59925789 28.52279684 -13.875 26.8125 C-20.54578817 21.09468157 -20.54578817 21.09468157 -21.62109375 16.60546875 C-22.01053402 11.43147662 -21.17584422 8.42422267 -17.8125 4.4375 C-12.54847635 -1.05148193 -7.40705096 -2.56979319 0 0 Z " fill="#000912" transform="translate(292.0625,671.0625)"/>
<path d="M0 0 C3.2277235 2.12736321 4.89407493 3.38617679 6.75 6.8125 C7.54839985 12.14874392 7.41939689 16.42412126 5.0625 21.3125 C0.97581155 25.73054156 -1.7456698 27.00015539 -7.75 27.25 C-11.39011195 27.14236228 -13.02418257 26.93952231 -16.25 25.125 C-20.33322003 20.40377684 -21.76764627 17.27183661 -21.5390625 11.02734375 C-20.98400243 6.77438348 -19.40200194 3.85650176 -16.25 1 C-11.03526677 -2.09624785 -5.53614578 -2.0228225 0 0 Z " fill="#000810" transform="translate(356.25,577.1875)"/>
<path d="M0 0 C0.73999023 1.72949219 0.73999023 1.72949219 1 4 C-0.53881836 6.10644531 -0.53881836 6.10644531 -2.83984375 8.328125 C-3.65517578 9.12734375 -4.47050781 9.9265625 -5.31054688 10.75 C-6.17744141 11.575 -7.04433594 12.4 -7.9375 13.25 C-9.23204102 14.51070312 -9.23204102 14.51070312 -10.55273438 15.796875 C-12.69110315 17.87617282 -14.84024089 19.94296615 -17 22 C-17.99 21.67 -18.98 21.34 -20 21 C-19.25109497 20.2589502 -19.25109497 20.2589502 -18.48706055 19.50292969 C-16.21789673 17.25460324 -13.95266905 15.00235079 -11.6875 12.75 C-10.90181641 11.97269531 -10.11613281 11.19539062 -9.30664062 10.39453125 C-8.54931641 9.64042969 -7.79199219 8.88632812 -7.01171875 8.109375 C-6.31522217 7.41811523 -5.61872559 6.72685547 -4.90112305 6.01464844 C-3.09620813 4.10195319 -1.53058332 2.13569765 0 0 Z " fill="#03C5E9" transform="translate(666,519)"/>
<path d="M0 0 C0 0.66 0 1.32 0 2 C-4.62 2 -9.24 2 -14 2 C-14 2.66 -14 3.32 -14 4 C-19.94 4.495 -19.94 4.495 -26 5 C-19.33272853 -1.66727147 -8.67477439 -0.30858881 0 0 Z " fill="#02BAD4" transform="translate(356,550)"/>
<path d="M0 0 C0.99 0.33 1.98 0.66 3 1 C2.84152588 1.56170898 2.68305176 2.12341797 2.51977539 2.70214844 C1.97811638 5.09674429 1.79358526 7.31438553 1.68359375 9.765625 C1.64169922 10.65507812 1.59980469 11.54453125 1.55664062 12.4609375 C1.49766602 13.84152344 1.49766602 13.84152344 1.4375 15.25 C1.39431641 16.18585938 1.35113281 17.12171875 1.30664062 18.0859375 C1.2008195 20.39048641 1.09873443 22.69513839 1 25 C-1 23 -1 23 -1.24291992 20.98461914 C-1.23881104 20.17629639 -1.23470215 19.36797363 -1.23046875 18.53515625 C-1.22853516 17.65279297 -1.22660156 16.77042969 -1.22460938 15.86132812 C-1.20624023 14.4759082 -1.20624023 14.4759082 -1.1875 13.0625 C-1.18685547 12.14275391 -1.18621094 11.22300781 -1.18554688 10.27539062 C-1.14055525 3.42166574 -1.14055525 3.42166574 0 0 Z " fill="#02CAE4" transform="translate(247,480)"/>
<path d="M0 0 C0.99 0.33 1.98 0.66 3 1 C-1.29 5.29 -5.58 9.58 -10 14 C-10.66 13.34 -11.32 12.68 -12 12 C-8.04 8.04 -4.08 4.08 0 0 Z " fill="#001017" transform="translate(746,509)"/>
<path d="M0 0 C1.67542976 0.28604898 3.34385343 0.61781233 5 1 C1.07600825 3.6159945 -1.55814242 5.26345511 -6.328125 5.1953125 C-7.52695312 5.18564453 -7.52695312 5.18564453 -8.75 5.17578125 C-9.575 5.15902344 -10.4 5.14226563 -11.25 5.125 C-12.09046875 5.11597656 -12.9309375 5.10695313 -13.796875 5.09765625 C-15.86470604 5.07415817 -17.93238995 5.03828908 -20 5 C-20 4.67 -20 4.34 -20 4 C-18.96359375 3.95101562 -17.9271875 3.90203125 -16.859375 3.8515625 C-15.48955792 3.77650403 -14.11976752 3.70095753 -12.75 3.625 C-12.06808594 3.5940625 -11.38617188 3.563125 -10.68359375 3.53125 C-6.56126407 3.29111429 -3.02435008 3.02435008 0 0 Z " fill="#01B6D2" transform="translate(297,528)"/>
<path d="M0 0 C3.42674028 3.15620815 5.55805301 5.56324003 7 10 C7.391875 10.845625 7.78375 11.69125 8.1875 12.5625 C9.09713729 15.29141186 8.79906803 16.31943846 8 19 C6.65929682 16.39939496 5.32726646 13.79495084 4 11.1875 C3.6184375 10.44951172 3.236875 9.71152344 2.84375 8.95117188 C2.4828125 8.23896484 2.121875 7.52675781 1.75 6.79296875 C1.41484375 6.1383667 1.0796875 5.48376465 0.734375 4.80932617 C0 3 0 3 0 0 Z " fill="#02C7ED" transform="translate(901,390)"/>
<path d="M0 0 C0.05416188 1.60379341 0.09286638 3.20811406 0.125 4.8125 C0.14820313 5.70582031 0.17140625 6.59914063 0.1953125 7.51953125 C0 10 0 10 -2 13 C-2.66 13 -3.32 13 -4 13 C-3.88652381 11.02013918 -3.7589065 9.04108402 -3.625 7.0625 C-3.55539062 5.96035156 -3.48578125 4.85820313 -3.4140625 3.72265625 C-3.27742187 2.82417969 -3.14078125 1.92570313 -3 1 C-1 0 -1 0 0 0 Z " fill="#04BEED" transform="translate(956,811)"/>
<path d="M0 0 C0.66 0.66 1.32 1.32 2 2 C1.625 4.125 1.625 4.125 1 6 C0.34 6 -0.32 6 -1 6 C-1 6.99 -1 7.98 -1 9 C-0.34 9.33 0.32 9.66 1 10 C0.01 10.495 0.01 10.495 -1 11 C-1.65772428 14.02934491 -1.65772428 14.02934491 -2 17 C-2.33 17 -2.66 17 -3 17 C-3.40368295 10.54107286 -2.5915262 5.93891422 0 0 Z " fill="#003347" transform="translate(898,803)"/>
<path d="M0 0 C0.99 0.33 1.98 0.66 3 1 C2.34 1 1.68 1 1 1 C0.7525 1.5775 0.505 2.155 0.25 2.75 C-1.16683317 5.3002997 -2.87627537 7.01785701 -5 9 C-5.99 8.67 -6.98 8.34 -8 8 C-7.04578192 6.85073734 -6.08647955 5.70569459 -5.125 4.5625 C-4.59132813 3.92441406 -4.05765625 3.28632812 -3.5078125 2.62890625 C-2 1 -2 1 0 0 Z " fill="#05C7E8" transform="translate(261,653)"/>
<path d="M0 0 C0.66 0.33 1.32 0.66 2 1 C-5.29840547 8.48291572 -5.29840547 8.48291572 -9 11 C-9.66 10.67 -10.32 10.34 -11 10 C-9.73232923 8.70522938 -8.46073776 7.41429661 -7.1875 6.125 C-6.47980469 5.40570313 -5.77210938 4.68640625 -5.04296875 3.9453125 C-3 2 -3 2 0 0 Z " fill="#04CDEA" transform="translate(443,344)"/>
<path d="M0 0 C-1.38188453 3.21043882 -2.92421903 5.04936365 -5.625 7.25 C-6.57246094 8.03117187 -6.57246094 8.03117187 -7.5390625 8.828125 C-8.02117188 9.21484375 -8.50328125 9.6015625 -9 10 C-9.66 9.67 -10.32 9.34 -11 9 C-9.54782324 7.49403892 -8.08807139 5.99537896 -6.625 4.5 C-5.40683594 3.24703125 -5.40683594 3.24703125 -4.1640625 1.96875 C-2 0 -2 0 0 0 Z " fill="#001B24" transform="translate(760,496)"/>
<path d="M0 0 C0.99 0.33 1.98 0.66 3 1 C1.60667426 4.36720387 0.0210714 5.9859524 -3 8 C-3.33 6.35 -3.66 4.7 -4 3 C-2.1875 1.4375 -2.1875 1.4375 0 0 Z " fill="#06C6E7" transform="translate(530,440)"/>
<path d="M0 0 C0 3.17370278 -0.30933342 4.3794668 -2 7 C-4 8.3125 -4 8.3125 -6 9 C-6.66 8.67 -7.32 8.34 -8 8 C-5.36 5.36 -2.72 2.72 0 0 Z " fill="#011F2D" transform="translate(317,709)"/>
<path d="M0 0 C-1 3 -1 3 -2.70703125 4.203125 C-3.40183594 4.54859375 -4.09664063 4.8940625 -4.8125 5.25 C-5.49957031 5.60578125 -6.18664062 5.9615625 -6.89453125 6.328125 C-9.35077442 7.11193544 -10.60042386 6.84119973 -13 6 C-11.21118264 4.99491199 -9.41885304 3.99607264 -7.625 3 C-6.62726563 2.443125 -5.62953125 1.88625 -4.6015625 1.3125 C-2 0 -2 0 0 0 Z " fill="#03C1DD" transform="translate(473,325)"/>
<path d="M0 0 C0.66 0.33 1.32 0.66 2 1 C1.05016642 2.50539661 0.08988109 4.00420347 -0.875 5.5 C-1.40867187 6.3353125 -1.94234375 7.170625 -2.4921875 8.03125 C-2.98976563 8.6809375 -3.48734375 9.330625 -4 10 C-4.66 10 -5.32 10 -6 10 C-4.6302836 6.00499382 -2.74277578 3.19990508 0 0 Z " fill="#05C6DE" transform="translate(319,563)"/>
<path d="M0 0 C0.66 0.66 1.32 1.32 2 2 C0.02 4.31 -1.96 6.62 -4 9 C-4.66 8.67 -5.32 8.34 -6 8 C-4.55746343 4.63408134 -2.66735273 2.48952921 0 0 Z " fill="#03CDEC" transform="translate(259,463)"/>
<path d="M0 0 C0.33 0.99 0.66 1.98 1 3 C0.0479279 4.00596297 -0.91187346 5.00461563 -1.875 6 C-2.40867187 6.556875 -2.94234375 7.11375 -3.4921875 7.6875 C-5 9 -5 9 -7 9 C-5.44499019 5.18315774 -2.96404505 2.80804268 0 0 Z " fill="#02C6E2" transform="translate(634,553)"/>
<path d="M0 0 C0.66 0.99 1.32 1.98 2 3 C-0.31 4.98 -2.62 6.96 -5 9 C-5.66 8.67 -6.32 8.34 -7 8 C-4.69 5.36 -2.38 2.72 0 0 Z " fill="#00131D" transform="translate(729,526)"/>
<path d="M0 0 C0.99386719 0.10183594 1.98773437 0.20367187 3.01171875 0.30859375 C3.77097656 0.39238281 4.53023437 0.47617187 5.3125 0.5625 C5.3125 0.8925 5.3125 1.2225 5.3125 1.5625 C3.54336176 1.78476864 1.77205629 1.98983873 0 2.1875 C-0.98613281 2.30351562 -1.97226562 2.41953125 -2.98828125 2.5390625 C-5.6875 2.5625 -5.6875 2.5625 -8.6875 0.5625 C-5.3763987 -0.54120043 -3.44001051 -0.36423641 0 0 Z " fill="#011827" transform="translate(513.6875,357.4375)"/>
<path d="M0 0 C-1 1.5625 -1 1.5625 -3 3 C-5.76614782 2.96726452 -8.26030547 2.49404328 -11 2 C-7.54930647 -0.30046235 -3.95022851 -1.97511426 0 0 Z " fill="#03BFE1" transform="translate(283,721)"/>
<path d="M0 0 C0.66 0.66 1.32 1.32 2 2 C0.02 3.98 -1.96 5.96 -4 8 C-4.99 7.67 -5.98 7.34 -7 7 C-4.69 4.69 -2.38 2.38 0 0 Z " fill="#00151E" transform="translate(777,476)"/>
<path d="M0 0 C0.66 0.66 1.32 1.32 2 2 C-1.465 4.97 -1.465 4.97 -5 8 C-5 5 -5 5 -2.5 2.3125 C-1.675 1.549375 -0.85 0.78625 0 0 Z " fill="#011621" transform="translate(795,457)"/>
<path d="M0 0 C0.33 0.99 0.66 1.98 1 3 C-1.97 5.475 -1.97 5.475 -5 8 C-5.66 7.67 -6.32 7.34 -7 7 C-4.69 4.69 -2.38 2.38 0 0 Z " fill="#000E16" transform="translate(698,560)"/>
<path d="M0 0 C0.33 0.66 0.66 1.32 1 2 C1.66 2.144375 2.32 2.28875 3 2.4375 C3.66 2.623125 4.32 2.80875 5 3 C5.33 3.99 5.66 4.98 6 6 C2.22454612 4.90931332 -0.47043472 4.0916909 -3 1 C-2.01 0.67 -1.02 0.34 0 0 Z " fill="#04B6D1" transform="translate(266,525)"/>
<path d="M0 0 C0.99 0 1.98 0 3 0 C3 2.31 3 4.62 3 7 C2.01 7.33 1.02 7.66 0 8 C0 5.36 0 2.72 0 0 Z " fill="#01A8CD" transform="translate(363,586)"/>
<path d="M0 0 C0.99 0.33 1.98 0.66 3 1 C1.35 2.65 -0.3 4.3 -2 6 C-2.99 5.67 -3.98 5.34 -5 5 C-3.35 3.35 -1.7 1.7 0 0 Z " fill="#03BFDE" transform="translate(616,572)"/>
<path d="M0 0 C-0.33 0.99 -0.66 1.98 -1 3 C-3.31 3 -5.62 3 -8 3 C-4.93882432 0.37613513 -4.26826873 0 0 0 Z " fill="#011B29" transform="translate(919,788)"/>
<path d="M0 0 C0.99 0.66 1.98 1.32 3 2 C1.68 3.32 0.36 4.64 -1 6 C-1.66 5.67 -2.32 5.34 -3 5 C-1.125 1.125 -1.125 1.125 0 0 Z " fill="#02CAEC" transform="translate(323,559)"/>
<path d="M0 0 C0.33 0.99 0.66 1.98 1 3 C-1.3125 4.5625 -1.3125 4.5625 -4 6 C-4.99 5.67 -5.98 5.34 -7 5 C-4.69 3.35 -2.38 1.7 0 0 Z " fill="#03CAEA" transform="translate(453,336)"/>
</svg>
